<svg width="16" height="16" viewBox="0 0 16 16" fill="none" xmlns="http://www.w3.org/2000/svg">
<path d="M12.647 0.573082L7.99896 5.22133C6.44971 3.67258 4.89996 2.12233 3.35046 0.573082C1.55796 -1.21942 -1.22054 1.56008 0.570458 3.35308C2.12021 4.90133 3.67046 6.45183 5.21846 8.00108C3.66975 9.55104 2.12042 11.1004 0.570458 12.6491C-1.22054 14.4411 1.55821 17.2198 3.35046 15.4291C4.89996 13.8791 6.44937 12.3296 7.99871 10.7806L12.6467 15.4291C14.4392 17.2211 17.2185 14.4413 15.4267 12.6491C13.8772 11.0994 12.3275 9.54992 10.7775 8.00058C12.3271 6.45075 13.8769 4.90108 15.4267 3.35158C17.2187 1.56008 14.4395 -1.21942 12.6467 0.574082" fill="#6A5044"/>
</svg>
