<svg width="14" height="11" viewBox="0 0 14 11" fill="none" xmlns="http://www.w3.org/2000/svg">
<path fill-rule="evenodd" clip-rule="evenodd" d="M13.4627 1.15006C13.6091 1.30539 13.7235 1.48805 13.7993 1.68759C13.8751 1.88713 13.9108 2.09965 13.9044 2.313C13.8981 2.52635 13.8497 2.73636 13.7622 2.93103C13.6747 3.1257 13.5496 3.30122 13.3942 3.44756L5.96874 10.4451C5.65844 10.7374 5.24568 10.8961 4.81946 10.8869C4.39323 10.8778 3.98768 10.7015 3.69024 10.3961L0.558236 7.17856C0.257613 6.86971 0.0919907 6.4541 0.0978043 6.02314C0.103618 5.59218 0.280391 5.18118 0.589236 4.88056C0.89808 4.57994 1.3137 4.41431 1.74466 4.42013C2.17561 4.42594 2.58661 4.60271 2.88724 4.91156L4.90374 6.98306L11.1662 1.08206C11.4799 0.786491 11.8981 0.627609 12.3288 0.640361C12.7596 0.653113 13.1676 0.836456 13.4632 1.15006" fill="#6A5044"/>
</svg>
